Coordinates
version=1
nRows=34
nColumns=38
inDegrees=no

Units are S.I. units (second, meters, Newtons, ...)
If the header above contains a line with 'inDegrees', this indicates whether rotational values are in degrees (yes) or radians (no).

endheader
time	pelvis_tilt	pelvis_list	pelvis_rotation	pelvis_tx	pelvis_ty	pelvis_tz	hip_flexion_r	hip_adduction_r	hip_rotation_r	knee_angle_r	ankle_angle_r	subtalar_angle_r	mtp_angle_r	hip_flexion_l	hip_adduction_l	hip_rotation_l	knee_angle_l	ankle_angle_l	subtalar_angle_l	mtp_angle_l	lumbar_extension	lumbar_bending	lumbar_rotation	arm_flex_r	arm_add_r	arm_rot_r	elbow_flex_r	pro_sup_r	wrist_flex_r	wrist_dev_r	arm_flex_l	arm_add_l	arm_rot_l	elbow_flex_l	pro_sup_l	wrist_flex_l	wrist_dev_l
0.53	-0.0618499	1.41284	-1.81716	0.835707	1.07905	0.941916	0.00692106	-0.0915856	0.0648098	1.20603	0.146836	0	0	0.173039	-0.0825974	-0.499474	0.353159	0.057673	0	0	-0.28965	-0.0737885	0.191693	0.399802	-0.44414	0.204129	1.03139	0.902687	0	0	0.334038	-0.346164	0.123071	1.06441	0.842369	0	0
0.54	-0.113584	1.40715	-1.76896	0.836142	1.06815	0.944034	0.0142622	-0.0743874	0.0772726	1.21732	0.169105	0	0	0.159385	-0.0882569	-0.500791	0.369559	0.0700076	0	0	-0.299713	-0.0660087	0.196003	0.402919	-0.445902	0.205107	1.03348	0.902845	0	0	0.337149	-0.344753	0.123101	1.06311	0.841748	0	0
0.55	-0.161129	1.40231	-1.72186	0.836857	1.05715	0.946301	0.0212743	-0.0571166	0.0863894	1.22055	0.183341	0	0	0.145008	-0.0919482	-0.49773	0.379575	0.0804706	0	0	-0.308058	-0.0570248	0.196895	0.405939	-0.446523	0.206352	1.0338	0.903373	0	0	0.339991	-0.343646	0.123611	1.05964	0.841237	0	0
0.56	-0.204785	1.39853	-1.67704	0.837753	1.04617	0.948564	0.0289477	-0.0399834	0.0936906	1.21688	0.189418	0	0	0.13023	-0.0948988	-0.494895	0.38524	0.0918548	0	0	-0.314565	-0.047471	0.195977	0.408461	-0.445975	0.206705	1.03313	0.904058	0	0	0.342401	-0.342822	0.124345	1.05508	0.841075	0	0
0.57	-0.239004	1.39601	-1.64088	0.838721	1.03525	0.950714	0.0378831	-0.0245641	0.0997784	1.20733	0.189418	0	0	0.115633	-0.0961692	-0.492328	0.387071	0.1027	0	0	-0.318893	-0.0390785	0.194225	0.409664	-0.444001	0.204533	1.03198	0.905205	0	0	0.344333	-0.342255	0.125276	1.05049	0.841236	0	0
0.58	-0.266221	1.39543	-1.61169	0.839669	1.02436	0.952623	0.0488086	-0.0108231	0.1051	1.19306	0.187966	0	0	0.102749	-0.0960752	-0.488694	0.386608	0.112338	0	0	-0.320758	-0.0318386	0.192305	0.409234	-0.440938	0.199548	1.03144	0.907199	0	0	0.344936	-0.342026	0.125464	1.04748	0.841396	0	0
0.59	-0.291378	1.3967	-1.58484	0.840559	1.01346	0.954215	0.0614603	0.0018065	0.109505	1.17516	0.189247	0	0	0.0921417	-0.0954406	-0.483542	0.385694	0.12157	0	0	-0.320394	-0.0249996	0.190557	0.407282	-0.437775	0.192746	1.03271	0.910102	0	0	0.344173	-0.341747	0.124301	1.04615	0.841445	0	0
0.6	-0.319436	1.39914	-1.55518	0.841438	1.00258	0.955546	0.074944	0.0142596	0.11319	1.15399	0.194836	0	0	0.0835277	-0.0951137	-0.477466	0.385612	0.131179	0	0	-0.318649	-0.0175859	0.188832	0.404496	-0.435455	0.186095	1.03581	0.913352	0	0	0.34232	-0.341319	0.121886	1.04611	0.841453	0	0
0.61	-0.352283	1.40201	-1.52033	0.842367	0.991745	0.95675	0.0884414	0.0270458	0.116284	1.1295	0.203677	0	0	0.0756753	-0.0953474	-0.47176	0.38559	0.141202	0	0	-0.316468	-0.00914607	0.186749	0.401521	-0.4345	0.181286	1.04005	0.916019	0	0	0.339849	-0.34095	0.11878	1.04714	0.841356	0	0
0.62	-0.388719	1.40448	-1.48097	0.84339	0.980968	0.957969	0.101208	0.0398726	0.11839	1.10194	0.213666	0	0	0.0668875	-0.0958732	-0.467345	0.384154	0.151386	0	0	-0.314861	0.000179519	0.184208	0.398494	-0.43526	0.178117	1.04556	0.918075	0	0	0.337675	-0.340721	0.116523	1.04865	0.841279	0	0
0.63	-0.426095	1.40605	-1.43939	0.844534	0.97024	0.959264	0.112977	0.0520924	0.119204	1.07186	0.223269	0	0	0.0562808	-0.0960828	-0.464103	0.380111	0.160871	0	0	-0.314299	0.0100356	0.180991	0.395441	-0.437431	0.175964	1.05206	0.919745	0	0	0.336333	-0.34046	0.115696	1.04996	0.841802	0	0
0.64	-0.462452	1.40649	-1.39744	0.845792	0.959517	0.960639	0.123541	0.0633533	0.118621	1.0396	0.231377	0	0	0.0436278	-0.0957075	-0.461061	0.373298	0.16939	0	0	-0.314891	0.0201884	0.177025	0.392318	-0.440455	0.174241	1.05891	0.921163	0	0	0.335544	-0.340196	0.115922	1.05122	0.843375	0	0
0.65	-0.497805	1.40622	-1.35544	0.847081	0.948781	0.96201	0.133505	0.0740884	0.117538	1.00607	0.238138	0	0	0.0297592	-0.0950794	-0.456941	0.364661	0.177308	0	0	-0.315961	0.030486	0.172371	0.389105	-0.443552	0.172563	1.06552	0.922032	0	0	0.334661	-0.339852	0.116151	1.05291	0.846019	0	0
0.66	-0.533425	1.40576	-1.31245	0.848342	0.938029	0.963269	0.143886	0.0846388	0.116266	0.97218	0.245111	0	0	0.0160289	-0.0946723	-0.451166	0.355605	0.184881	0	0	-0.316562	0.0408801	0.167064	0.385819	-0.446224	0.171042	1.07108	0.921972	0	0	0.333451	-0.339231	0.116074	1.05519	0.847642	0	0
0.67	-0.569364	1.40558	-1.2687	0.849575	0.927267	0.964355	0.155483	0.0947287	0.114654	0.938494	0.252062	0	0	0.00329012	-0.0945718	-0.444295	0.347003	0.192363	0	0	-0.316004	0.0512843	0.161054	0.382642	-0.448265	0.169604	1.07539	0.921356	0	0	0.331451	-0.3385	0.115264	1.05776	0.848695	0	0
0.68	-0.605541	1.40548	-1.22461	0.85075	0.916452	0.965278	0.16811	0.104345	0.112655	0.905401	0.259386	0	0	-0.0087081	-0.0947354	-0.436841	0.339141	0.199924	0	0	-0.314257	0.0617221	0.154647	0.379481	-0.449708	0.168291	1.07861	0.919664	0	0	0.328668	-0.337452	0.113308	1.06023	0.849701	0	0
0.69	-0.641023	1.4053	-1.18177	0.851812	0.905587	0.966068	0.181655	0.113424	0.110592	0.873288	0.266731	0	0	-0.0206921	-0.0950442	-0.429772	0.331535	0.207195	0	0	-0.311593	0.0719661	0.148543	0.376491	-0.45071	0.167351	1.08058	0.917486	0	0	0.325418	-0.336116	0.11104	1.06228	0.850581	0	0
0.7	-0.676866	1.40477	-1.139	0.852773	0.894659	0.966751	0.195688	0.122244	0.108225	0.841839	0.273016	0	0	-0.0330271	-0.0956604	-0.42311	0.323688	0.213705	0	0	-0.308201	0.0824244	0.142599	0.374019	-0.451303	0.166672	1.08136	0.916005	0	0	0.321872	-0.334472	0.108841	1.06328	0.851658	0	0
0.71	-0.713264	1.40364	-1.09601	0.853639	0.88367	0.967347	0.209958	0.130961	0.105402	0.811067	0.276832	0	0	-0.0458713	-0.0966939	-0.416775	0.315531	0.219999	0	0	-0.304385	0.0932467	0.136947	0.371858	-0.451787	0.166151	1.08145	0.915731	0	0	0.318366	-0.332394	0.106638	1.06305	0.85296	0	0
0.72	-0.750359	1.40159	-1.05263	0.85441	0.872661	0.967871	0.224117	0.139858	0.101823	0.780879	0.278411	0	0	-0.059383	-0.098408	-0.41052	0.30739	0.226447	0	0	-0.300587	0.104624	0.131631	0.370071	-0.452305	0.166234	1.08078	0.916483	0	0	0.315113	-0.329928	0.104606	1.06158	0.85427	0	0
0.73	-0.787987	1.39843	-1.00916	0.855069	0.861642	0.968304	0.237724	0.149212	0.0981017	0.750824	0.278123	0	0	-0.0736393	-0.101111	-0.404872	0.299497	0.233223	0	0	-0.297122	0.116619	0.127025	0.368348	-0.453024	0.166603	1.07989	0.917701	0	0	0.312168	-0.327186	0.102845	1.05942	0.855203	0	0
0.74	-0.825585	1.39429	-0.966204	0.855611	0.850582	0.968644	0.250807	0.158733	0.0936053	0.720566	0.276521	0	0	-0.0885319	-0.104791	-0.399714	0.291901	0.240245	0	0	-0.294251	0.129067	0.123189	0.366285	-0.454011	0.16662	1.07968	0.91869	0	0	0.309182	-0.3244	0.101007	1.05769	0.855967	0	0
0.75	-0.862918	1.3894	-0.924161	0.856003	0.839494	0.968864	0.263566	0.168301	0.0878305	0.690264	0.27394	0	0	-0.103703	-0.109205	-0.39475	0.284537	0.247194	0	0	-0.291794	0.141816	0.119986	0.364381	-0.455055	0.166415	1.07997	0.919645	0	0	0.305985	-0.322041	0.0995005	1.05665	0.856931	0	0
0.76	-0.898595	1.38425	-0.884713	0.85622	0.828365	0.968939	0.276173	0.17752	0.0800983	0.659255	0.270481	0	0	-0.119101	-0.113882	-0.390994	0.277073	0.254255	0	0	-0.289359	0.154308	0.117376	0.362916	-0.456071	0.166236	1.08059	0.921912	0	0	0.302394	-0.320168	0.0978776	1.05622	0.858308	0	0
0.77	-0.932194	1.37953	-0.848136	0.856265	0.817224	0.968822	0.28919	0.185943	0.0712753	0.628741	0.267049	0	0	-0.13407	-0.118404	-0.3886	0.269881	0.261353	0	0	-0.286505	0.165937	0.115043	0.361777	-0.456865	0.166164	1.08147	0.925633	0	0	0.298574	-0.31874	0.096082	1.05613	0.859937	0	0
0.78	-0.963892	1.37512	-0.813861	0.856176	0.806018	0.968533	0.302223	0.193475	0.0604279	0.59834	0.264361	0	0	-0.14873	-0.122959	-0.386935	0.263501	0.268726	0	0	-0.283242	0.176835	0.112843	0.360165	-0.457837	0.167421	1.08262	0.927867	0	0	0.294624	-0.317473	0.0938484	1.05625	0.861509	0	0
0.79	-0.994783	1.37047	-0.780093	0.856072	0.794724	0.968085	0.31472	0.200243	0.0458478	0.567071	0.26181	0	0	-0.163124	-0.128097	-0.385642	0.258085	0.276769	0	0	-0.279849	0.187991	0.110329	0.358428	-0.459349	0.169567	1.08431	0.928055	0	0	0.290678	-0.315806	0.0908013	1.05617	0.863325	0	0
0.8	-1.02396	1.36689	-0.748538	0.85585	0.783396	0.967393	0.327883	0.20561	0.0290087	0.536619	0.260968	0	0	-0.176574	-0.132368	-0.385122	0.253104	0.284761	0	0	-0.275591	0.197935	0.108004	0.356668	-0.460635	0.1713	1.08629	0.928058	0	0	0.286529	-0.314712	0.0880929	1.05646	0.864294	0	0
0.81	-1.05283	1.36366	-0.717439	0.855517	0.772004	0.966513	0.340694	0.210481	0.0102648	0.505557	0.260618	0	0	-0.18949	-0.13659	-0.385513	0.248474	0.292756	0	0	-0.270742	0.207494	0.105545	0.355128	-0.461569	0.172694	1.08836	0.928834	0	0	0.282212	-0.313906	0.0855037	1.0569	0.864736	0	0
0.82	-1.0812	1.36067	-0.686976	0.855064	0.760555	0.965451	0.35268	0.215089	-0.00984794	0.473227	0.260043	0	0	-0.201849	-0.140772	-0.386452	0.244617	0.300738	0	0	-0.265549	0.216646	0.103176	0.35366	-0.46237	0.173863	1.09069	0.929684	0	0	0.278106	-0.313151	0.0830621	1.05729	0.865526	0	0
0.83	-1.10676	1.3577	-0.658895	0.854584	0.749065	0.96426	0.363051	0.219134	-0.0312918	0.439008	0.258899	0	0	-0.214002	-0.144721	-0.386866	0.241723	0.30864	0	0	-0.260632	0.225393	0.100257	0.352731	-0.463121	0.175647	1.09276	0.929915	0	0	0.274341	-0.312462	0.0804669	1.05772	0.866482	0	0
0.84	-1.12758	1.35439	-0.634678	0.854182	0.737515	0.962992	0.371204	0.222366	-0.0549995	0.403133	0.257092	0	0	-0.226816	-0.148425	-0.386365	0.238996	0.316349	0	0	-0.256724	0.233947	0.0966593	0.352367	-0.464093	0.177665	1.0949	0.930018	0	0	0.270992	-0.31191	0.078125	1.05849	0.867611	0	0
0.85	-1.1437	1.35053	-0.614446	0.85383	0.725904	0.961699	0.37681	0.225278	-0.0811492	0.366135	0.254818	0	0	-0.240681	-0.1523	-0.385475	0.236261	0.323731	0	0	-0.254048	0.242508	0.0929541	0.352236	-0.465196	0.178986	1.09693	0.930412	0	0	0.268539	-0.311201	0.0764669	1.05895	0.868527	0	0
0.86	-1.15863	1.34673	-0.595629	0.853336	0.714192	0.960325	0.380411	0.228551	-0.107248	0.326945	0.25171	0	0	-0.254692	-0.156423	-0.385519	0.233945	0.330809	0	0	-0.251411	0.250672	0.0901357	0.351479	-0.466195	0.178861	1.09912	0.931771	0	0	0.267	-0.310122	0.0755513	1.05856	0.869238	0	0
